HIERARCHY
ROOT hip
{
  OFFSET 0 0 0
  CHANNELS 6 Xposition Yposition Zposition Zrotation Yrotation Xrotation
  JOINT abdomen
  {
    OFFSET 0 20.6881 -0.73152
    CHANNELS 3 Zrotation Xrotation Yrotation
    JOINT chest
    {
      OFFSET 0 11.7043 -0.48768
      CHANNELS 3 Zrotation Xrotation Yrotation
      JOINT neck
      {
        OFFSET 0 22.1894 -2.19456
        CHANNELS 3 Zrotation Xrotation Yrotation
        JOINT head
        {
          OFFSET -0.24384 7.07133 1.2192
          CHANNELS 3 Zrotation Xrotation Yrotation
          JOINT leftEye
          {
            OFFSET 4.14528 8.04674 8.04672
            CHANNELS 3 Zrotation Xrotation Yrotation
            End Site
            {
              OFFSET 1 0 0
            }
          }
          JOINT rightEye
          {
            OFFSET -3.6576 8.04674 8.04672
            CHANNELS 3 Zrotation Xrotation Yrotation
            End Site
            {
              OFFSET 1 0 0
            }
          }
        }
      }
      JOINT rCollar
      {
        OFFSET -2.68224 19.2634 -4.8768
        CHANNELS 3 Zrotation Xrotation Yrotation
        JOINT rShldr
        {
          OFFSET -8.77824 -1.95073 1.46304
          CHANNELS 3 Zrotation Xrotation Yrotation
          JOINT rForeArm
          {
            OFFSET -28.1742 -1.7115 0.48768
            CHANNELS 3 Zrotation Xrotation Yrotation
            JOINT rHand
            {
              OFFSET -22.5879 0.773209 7.07136
              CHANNELS 3 Zrotation Xrotation Yrotation
              JOINT rThumb1
              {
                OFFSET -1.2192 -0.487915 3.41376
                CHANNELS 3 Zrotation Xrotation Yrotation
                JOINT rThumb2
                {
                  OFFSET -3.37035 -0.52449 3.41376
                  CHANNELS 3 Zrotation Xrotation Yrotation
                  End Site
                  {
                    OFFSET -1.78271 -1.18214 1.43049
                  }
                }
              }
              JOINT rIndex1
              {
                OFFSET -7.75947 0.938293 5.60832
                CHANNELS 3 Zrotation Xrotation Yrotation
                JOINT rIndex2
                {
                  OFFSET -2.54057 -0.884171 1.56538
                  CHANNELS 3 Zrotation Xrotation Yrotation
                  End Site
                  {
                    OFFSET -1.62519 -0.234802 1.16502
                  }
                }
              }
              JOINT rMid1
              {
                OFFSET -8.24714 1.18213 3.41376
                CHANNELS 3 Zrotation Xrotation Yrotation
                JOINT rMid2
                {
                  OFFSET -3.10165 -0.590103 1.0647
                  CHANNELS 3 Zrotation Xrotation Yrotation
                  End Site
                  {
                    OFFSET -2.48547 -0.328903 0.83742
                  }
                }
              }
              JOINT rRing1
              {
                OFFSET -8.82822 0.546677 1.51678
                CHANNELS 3 Zrotation Xrotation Yrotation
                JOINT rRing2
                {
                  OFFSET -2.60934 -0.819778 -0.0198488
                  CHANNELS 3 Zrotation Xrotation Yrotation
                  End Site
                  {
                    OFFSET -2.33842 -0.294052 0.168128
                  }
                }
              }
              JOINT rPinky1
              {
                OFFSET -8.27202 -0.0477905 -0.4584
                CHANNELS 3 Zrotation Xrotation Yrotation
                JOINT rPinky2
                {
                  OFFSET -1.82734 -0.647385 -0.700984
                  CHANNELS 3 Zrotation Xrotation Yrotation
                  End Site
                  {
                    OFFSET -1.69225 -0.51767 -0.607171
                  }
                }
              }
            }
          }
        }
      }
      JOINT lCollar
      {
        OFFSET 2.68224 19.2634 -4.8768
        CHANNELS 3 Zrotation Xrotation Yrotation
        JOINT lShldr
        {
          OFFSET 8.77824 -1.95073 1.46304
          CHANNELS 3 Zrotation Xrotation Yrotation
          JOINT lForeArm
          {
            OFFSET 28.1742 -1.7115 0.48768
            CHANNELS 3 Zrotation Xrotation Yrotation
            JOINT lHand
            {
              OFFSET 22.5879 0.773209 7.07136
              CHANNELS 3 Zrotation Xrotation Yrotation
              JOINT lThumb1
              {
                OFFSET 1.2192 -0.487915 3.41376
                CHANNELS 3 Zrotation Xrotation Yrotation
                JOINT lThumb2
                {
                  OFFSET 3.37035 -0.52449 3.41376
                  CHANNELS 3 Zrotation Xrotation Yrotation
                  End Site
                  {
                    OFFSET 1.78271 -1.18214 1.43049
                  }
                }
              }
              JOINT lIndex1
              {
                OFFSET 7.75947 0.938293 5.60832
                CHANNELS 3 Zrotation Xrotation Yrotation
                JOINT lIndex2
                {
                  OFFSET 2.54057 -0.884171 1.56538
                  CHANNELS 3 Zrotation Xrotation Yrotation
                  End Site
                  {
                    OFFSET 1.62519 -0.234802 1.16502
                  }
                }
              }
              JOINT lMid1
              {
                OFFSET 8.24714 1.18213 3.41376
                CHANNELS 3 Zrotation Xrotation Yrotation
                JOINT lMid2
                {
                  OFFSET 3.10165 -0.590103 1.0647
                  CHANNELS 3 Zrotation Xrotation Yrotation
                  End Site
                  {
                    OFFSET 2.48547 -0.328903 0.83742
                  }
                }
              }
              JOINT lRing1
              {
                OFFSET 8.82822 0.546677 1.51678
                CHANNELS 3 Zrotation Xrotation Yrotation
                JOINT lRing2
                {
                  OFFSET 2.60934 -0.819778 -0.0198488
                  CHANNELS 3 Zrotation Xrotation Yrotation
                  End Site
                  {
                    OFFSET 2.33842 -0.294052 0.168128
                  }
                }
              }
              JOINT lPinky1
              {
                OFFSET 8.27202 -0.0477905 -0.4584
                CHANNELS 3 Zrotation Xrotation Yrotation
                JOINT lPinky2
                {
                  OFFSET 1.82734 -0.647385 -0.700984
                  CHANNELS 3 Zrotation Xrotation Yrotation
                  End Site
                  {
                    OFFSET 1.69225 -0.51767 -0.607171
                  }
                }
              }
            }
          }
        }
      }
    }
  }
  JOINT rButtock
  {
    OFFSET -8.77824 4.35084 1.2192
    CHANNELS 3 Zrotation Xrotation Yrotation
    JOINT rThigh
    {
      OFFSET 0 -1.70687 -2.19456
      CHANNELS 3 Zrotation Xrotation Yrotation
      JOINT rShin
      {
        OFFSET 0 -36.8199 0.73152
        CHANNELS 3 Zrotation Xrotation Yrotation
        JOINT rFoot
        {
          OFFSET 0.73152 -45.1104 -5.12064
          CHANNELS 3 Zrotation Xrotation Yrotation
          End Site
          {
            OFFSET -1.1221 -3.69964 12.103
          }
        }
      }
    }
  }
  JOINT lButtock
  {
    OFFSET 8.77824 4.35084 1.2192
    CHANNELS 3 Zrotation Xrotation Yrotation
    JOINT lThigh
    {
      OFFSET 0 -1.70687 -2.19456
      CHANNELS 3 Zrotation Xrotation Yrotation
      JOINT lShin
      {
        OFFSET 0 -36.8199 0.73152
        CHANNELS 3 Zrotation Xrotation Yrotation
        JOINT lFoot
        {
          OFFSET -0.73152 -45.1104 -5.12064
          CHANNELS 3 Zrotation Xrotation Yrotation
          End Site
          {
            OFFSET 1.1221 -3.69964 12.103
          }
        }
      }
    }
  }
}
MOTION
Frames:	5
Frame Time:	0.00833333
-93.238800 46.024500 -89.008500 178.597504 16.523198 -174.976905 -0.146058 14.415731 -165.888957 -1.178416 3.474422 166.292297 -5.023095 12.753771 -41.190769 26.235732 -17.440691 79.139137 43.021592 14.912033 26.141123 28.244644 3.830479 28.717036 -147.053324 13.187073 149.746475 -138.132592 45.517649 104.619495 156.993841 -74.639189 23.037145 -170.489401 23.197048 140.594860 164.335799 -37.618010 96.860317 -120.162632 33.204027 64.102815 -131.730977 30.564210 123.496415 -16.566729 53.038911 -9.185012 -165.957155 -21.233368 145.208991 -5.916378 50.139374 0.949975 4.388932 -17.935305 1.089690 -104.349118 -61.002107 -117.964267 -88.224482 -39.851154 -94.327271 31.745343 -41.188003 18.183070 0.224814 -68.401933 23.108306 111.405402 -12.845716 -164.489865 157.909218 -28.518779 70.523130 5.566710 -28.091532 11.993250 170.426935 8.772118 -80.296501 -129.696113 -22.205936 -73.315602 135.783162 11.381567 -112.968215 -147.125000 -58.461362 -116.427370 125.710268 55.631626 -115.886959 166.330929 12.263139 -133.598352 101.026498 -32.290183 137.109386 93.407203 -65.341880 150.572852 -9.690746 63.088523 4.515037 -24.912843 -34.465939 -22.847797 -149.095457 72.940760 -31.496835 136.395720 -1.328355 96.577939 95.233676 21.006268 -175.233072 -180.465861 -32.916264 -81.253179 -14.692496 4.766915 3.827087 66.609412 -52.184215 -93.609590 -103.786373 -45.708317 -22.107244 48.618025 -23.958200 115.561887
-93.791500 45.844300 -88.917600 173.031355 11.084226 -172.387502 1.158765 17.131225 -151.687458 1.601784 7.437362 152.799659 14.843772 28.291708 149.985706 -26.228474 38.166932 -104.604831 32.445902 13.161837 27.802568 32.696966 1.308065 21.994661 -12.761106 24.050053 15.796593 -115.219279 -9.425710 180.887102 -159.739525 25.444087 -86.136876 -1.695333 -33.202947 -3.377910 -5.200585 8.754171 -8.821325 -80.642269 2.773454 88.955128 -12.891963 43.734757 1.564112 -24.146228 8.177802 -2.468201 4.085611 -8.908328 -4.246279 -115.270773 48.450073 105.618013 -141.453773 5.572931 174.171217 147.367184 -83.913686 121.826584 -79.736591 -38.843596 -90.052154 -113.011745 29.192890 169.112046 9.869755 34.499607 -11.526392 -66.127625 -40.958756 -87.772281 -42.760469 14.123403 -97.308992 18.576646 23.927420 -6.684038 0.637342 -16.153109 -15.328100 -6.004755 -36.716998 55.413405 140.572228 -4.842258 -120.660138 -61.620980 -76.880484 -34.654779 166.740050 -30.652432 -156.739632 172.386558 -17.273581 -157.175886 -46.884079 68.422297 16.661536 72.411916 -77.771178 50.117239 23.453944 4.887941 4.531485 103.061305 64.305484 173.534989 47.625332 27.020184 39.107806 -125.209030 -13.329570 -48.725741 -168.415213 84.016651 -74.300258 135.235486 59.915798 129.879230 -6.099367 1.107303 11.752088 50.508972 -60.827359 -118.641475 -106.707576 -58.953790 163.278154 175.347485 -47.308007 91.501788
-94.366900 45.685000 -88.806200 176.346809 12.821284 -178.875672 -7.339631 11.230037 175.491137 3.107012 2.769891 -166.556288 -3.382677 19.374120 -35.354586 32.077207 -13.596600 85.586618 31.530026 6.954451 36.476514 28.899576 6.155835 16.614222 -7.148048 30.060023 18.638019 59.904519 -14.221647 5.876177 -4.268524 -3.982390 101.643726 -2.854007 -23.509715 -3.644513 -159.556285 13.725749 95.350346 22.906055 -69.341051 27.985282 -138.786507 -50.511492 149.265023 -128.810382 -0.531705 130.435465 -175.596258 -58.301068 147.519617 -57.881583 75.397523 52.028167 -142.956309 -57.285527 -163.029014 159.413041 -79.729779 142.646379 -129.983092 1.960868 -125.250313 -105.067498 53.078153 -165.383722 159.098977 -17.161289 -164.142586 -136.309566 48.577004 116.909464 161.964841 -29.674619 -49.134835 173.042068 1.340314 -134.741221 170.318757 7.523217 -82.097560 81.635467 -24.669214 -24.663904 156.896139 -21.762826 -117.264911 4.168772 -26.240765 23.092261 166.517651 -34.264669 -157.530653 171.983917 5.686844 -154.084004 -15.610679 19.040722 18.609695 -51.495009 -67.680400 -60.117587 65.077308 -42.364807 35.193791 -33.058954 -2.984502 33.853298 128.534949 71.740123 25.426316 164.931379 5.075773 76.492101 101.444819 17.701495 166.568130 177.873939 60.765440 -70.931702 9.029655 13.474452 28.838466 11.706681 -63.519595 19.155342 100.126280 66.123519 -7.807278 -43.230631 -66.205355 -120.756353
-94.962700 45.546700 -88.670000 171.339607 15.837034 -178.450530 -0.913466 16.379242 -157.297500 0.592211 4.501372 159.354460 -12.707121 21.116713 -77.409943 33.166975 10.878543 118.870157 21.999538 8.483655 33.059864 35.476453 4.327253 10.679053 11.173638 -54.096298 2.668831 -100.960971 -44.701934 -112.861667 182.556186 5.416158 -73.866460 -3.245004 -5.263811 -7.126535 -175.429121 -10.915949 105.338262 -20.536453 -62.414389 -21.602496 -10.079987 45.916238 -4.501951 -104.446673 42.336242 62.190745 -22.264878 48.604678 21.396762 -158.182946 12.058326 127.425909 -145.947981 1.217372 171.652791 20.552748 -24.120437 2.505956 -131.805333 17.509918 -132.758279 28.168955 -32.704184 -26.460464 -3.492933 16.252618 -2.421843 -60.929297 -30.118139 -63.490988 3.462034 1.668299 -102.233812 4.904732 -18.931326 11.041936 -14.382416 -20.821030 -9.786881 81.399616 -64.747807 142.577293 168.205083 -45.799467 -124.811321 170.702170 -5.780463 -135.109248 106.072333 71.369715 -93.359014 -4.257548 -14.666344 -12.772178 -26.871388 49.868319 14.494478 35.671201 31.331932 -18.687527 5.255199 52.018441 -8.448868 121.049162 -17.054482 165.811182 6.489991 10.964014 17.302089 -92.635791 -41.686167 -4.308953 102.979958 46.549876 167.895082 48.678796 -45.846198 120.902164 -158.211473 68.836026 -31.275956 -150.952650 3.030324 -79.628043 -94.343056 34.606295 171.826636 162.612153 -48.932277 67.695608
-95.576000 45.430900 -88.505900 171.465458 19.757015 -175.654845 -6.235339 12.036509 -161.138567 -1.120690 7.818308 171.265563 -2.046679 14.795758 -17.186446 23.917432 -15.940097 75.518346 23.053399 7.058857 36.503776 34.632552 1.286218 5.037208 -151.038096 24.647525 145.744196 -88.187259 37.986879 77.594671 175.780330 43.923837 -68.867345 -6.489467 -7.043221 -3.489795 -0.236940 -6.964073 -11.653224 50.773750 -67.113237 -16.672108 9.915408 23.930146 -13.171326 -0.163779 -6.469111 12.045369 -166.174577 -38.348374 152.074990 -84.912800 75.107775 78.517119 -141.519681 3.825064 180.824830 -158.985327 -28.919287 160.865339 -171.795915 74.037207 -115.932757 59.099794 19.164766 -40.793082 150.760636 -59.894555 176.908774 -54.205990 27.366713 31.735653 -152.342634 -17.281993 -20.195506 144.509514 46.869688 -124.992928 176.062198 2.245178 -75.929251 163.274610 11.263116 -55.132779 -112.656198 -75.066368 -57.862774 12.824726 65.340880 6.917633 162.304966 -9.701445 -148.424597 122.854000 73.067527 -93.218092 -0.169528 -18.758441 32.885811 -95.041879 -63.948892 -58.987074 83.003652 -44.429376 56.006478 64.323505 -12.233685 72.022393 92.717341 53.650719 44.148738 -177.264673 0.311986 113.743463 108.557770 -31.428843 155.430620 -162.873444 48.374798 -104.587057 -4.441451 4.686212 16.647611 51.001842 -60.592821 169.126117 107.443722 -41.940345 65.118719 115.694812 60.679165 132.226358
